<svg height="512pt" viewBox="0 -1 512.00055 512" width="512pt" xmlns="http://www.w3.org/2000/svg"><path d="m502.523438 149.320312c-1.214844-3.949218-5.40625-6.167968-9.351563-4.957031-3.949219 1.210938-6.171875 5.398438-4.957031 9.347657 5.851562 19.070312 8.820312 39.917968 8.820312 61.964843 0 40.308594-10.054687 80.246094-29.082031 115.496094-3.632813 6.738281-11.8125 9.832031-19.023437 7.207031l-10.214844-3.71875c4.566406-17.230468 6.882812-34.992187 6.882812-52.90625 0-26.3125-4.96875-50.445312-14.75-71.851562 3.746094-4.074219 6.039063-9.507813 6.039063-15.46875 0-12.617188-10.261719-22.878906-22.878907-22.878906-2.585937 0-5.070312.4375-7.390624 1.230468-36.335938-40.832031-95.398438-63.246094-167.15625-63.246094-69.308594 0-127.59375 21.285157-164.117188 59.933594-2.835938 3.003906-2.703125 7.742188.300781 10.578125 3.003907 2.839844 7.738281 2.703125 10.578125-.296875 33.664063-35.628906 88.085938-55.25 153.238282-55.25 66.984374 0 121.820312 20.382813 155.335937 57.527344-2.316406 3.578125-3.667969 7.835938-3.667969 12.402344 0 12.617187 10.261719 22.878906 22.878906 22.878906 1.234376 0 2.445313-.101562 3.628907-.289062 8.617187 19.222656 12.996093 40.957031 12.996093 64.730468 0 16.164063-2.035156 32.195313-6.046874 47.761719l-33.988282-12.375c-7.59375-2.765625-13.859375-8.449219-17.636718-16-11.667969-23.308594-30.664063-41.445313-56.46875-53.910156-22.753907-10.988281-50.433594-17.019531-80.289063-17.550781-.140625-.003907-.28125-.007813-.421875-.003907-1.292969-.023437-2.582031-.046875-3.882812-.046875-14.351563 0-28.191407 1.261719-41.300782 3.71875-.285156.039063-.570312.089844-.847656.160156-3 .578126-5.96875 1.195313-8.882812 1.894532-5.796876 1.394531-11.949219 1.011718-17.785157-1.113282l-137.84375-50.195312c-7.410156-2.699219-11.648437-10.476562-9.863281-18.09375 22.175781-94.574219 111.179688-151.035156 238.078125-151.035156 104.269531 0 185.035156 39.023437 221.585937 107.066406 1.957032 3.640625 6.492188 5.007812 10.132813 3.050781s5.007813-6.492187 3.050781-10.132812c-20.082031-37.386719-51.855468-66.480469-94.4375-86.46875-39.691406-18.632813-88.21875-28.480469-140.332031-28.480469-62.683594 0-118.871094 13.941406-162.488281 40.316406-46.875 28.34375-78.050782 70.621094-90.160156 122.265625-3.515626 14.992188 4.785156 30.285157 19.3125 35.574219l40.054687 14.585938 180.335937 180.589843 3.957032 17.421875c.863281 3.792969 2.542968 7.199219 4.820312 10.078125v65.5c0 13.480469 10.964844 24.445313 24.445313 24.445313s24.445312-10.964844 24.445312-24.445313v-65.039062c1.871094-2.226563 3.363281-4.789063 4.378907-7.59375l60.460937-.257813c36.574219-.15625 66.429687-29.519531 67.480469-65.847656l13.3125 4.847656c3.386718 1.234375 6.882812 1.820313 10.339844 1.820313 10.972656 0 21.550781-5.929688 26.976562-15.984375 20.199219-37.421875 30.875-79.820313 30.875-122.601563 0-23.539062-3.1875-45.863281-9.476562-66.355469zm-96.429688 45.113282c0-4.363282 3.554688-7.914063 7.914062-7.914063 4.363282 0 7.914063 3.550781 7.914063 7.914063 0 4.363281-3.550781 7.914062-7.914063 7.914062-4.363281 0-7.914062-3.550781-7.914062-7.914062zm-143.957031 218.296875c-.101563-.105469-.207031-.207031-.316407-.304688-1.335937-1.324219-2.316406-3.03125-2.761718-4.988281l-6.488282-28.570312c-.078124-1.347657.550782-2.285157.953126-2.742188.429687-.484375 1.371093-1.296875 2.878906-1.296875h34.65625c1.492187 0 2.433594.796875 2.859375 1.273437.402343.449219 1.035156 1.371094.976562 2.707032l-5.464843 25.898437c-.007813.03125-.015626.0625-.019532.097657l-.527344 2.480468c-.988281 4.683594-5.183593 8.085938-9.972656 8.085938h-9.914062c-2.625 0-5.039063-.984375-6.859375-2.640625zm46.957031-47.949219v-36.757812l61.304688-.265626c2.355468-.007812 4.714843-.148437 7.050781-.402343 1.355469.820312 2.765625 1.570312 4.207031 2.25v16.015625c0 10.394531-8.457031 18.886718-18.851562 18.929687zm28.46875-85.773438-48.972656.210938-33.433594-33.433594c34.039062 3.550782 62.351562 15.046875 82.40625 33.222656zm-153.191406-29.054687c1.566406-.378906 3.15625-.726563 4.75-1.0625l65.042968 65.042969c2.878907 2.878906 6.160157 5.40625 9.746094 7.503906 1.1875.695312 2.488282 1.023438 3.773438 1.023438 2.570312 0 5.074218-1.324219 6.464844-3.707032 2.085937-3.566406.886718-8.152344-2.679688-10.238281-2.484375-1.449219-4.746094-3.1875-6.722656-5.167969l-57.402344-57.402344c7.953125-.898437 16.15625-1.351562 24.558594-1.351562.304687 0 .601562.007812.910156.011719l45.339844 45.339843c2.695312 2.695313 6.429687 4.242188 10.304687 4.242188l62.601563-.269531c3.214844 4.378906 6.066406 9.019531 8.519531 13.917969.867187 1.734374 1.835937 3.394531 2.882813 4.988281l-60.878907.261719c-4.121093.019531-7.453125 3.363281-7.453125 7.484374v39.566407c-1.007812-.167969-2.03125-.277344-3.070312-.277344h-14.882813l-109.019531-109.175781c5.753906.863281 11.582031.628906 17.214844-.730469zm-48.863282-9.777344 119.585938 119.753907c-4.90625.34375-9.515625 2.578124-12.792969 6.292968-1.253906 1.421875-2.253906 3.011719-3.019531 4.703125l-145.875-146.082031zm138.222657 255.636719c-5.226563 0-9.480469-4.253906-9.480469-9.480469v-56.449219c1.542969.289063 3.125.457032 4.746094.457032h9.914062c1.460938 0 2.894532-.132813 4.296875-.378906v56.375c0 5.222656-4.25 9.476562-9.476562 9.476562zm141.851562-150.191406c0 29.019531-23.613281 52.730468-52.628906 52.855468l-56.964844.242188 3.644531-17.273438c.054688-.242187.09375-.484374.117188-.730468.039062-.324219.039062-.644532.054688-.96875l53.066406-.226563c18.613281-.082031 33.753906-15.289062 33.753906-33.898437v-10.359375l18.957031 6.902343zm0 0"/><path d="m253.820312 45.324219c-7.007812 0-14.042968.210937-20.910156.621093-5.777344.347657-10.644531 3.925782-12.699218 9.339844-2.058594 5.417969-.789063 11.324219 3.304687 15.421875l25.15625 25.15625c2.683594 2.683594 6.261719 4.191407 10.074219 4.246094 11.03125.15625 21.949218.855469 32.457031 2.074219.558594.0625 1.121094.09375 1.679687.09375 3.554688 0 7.011719-1.300782 9.6875-3.683594 3.082032-2.746094 4.851563-6.691406 4.851563-10.824219v-25.605469c0-7.335937-5.492187-13.53125-12.769531-14.417968-13.203125-1.605469-26.941406-2.421875-40.832032-2.421875zm38.636719 41.9375c-10.808593-1.234375-22.019531-1.945313-33.332031-2.113281l-24.320312-24.320313c6.25-.355469 12.644531-.535156 19.015624-.535156 13.152344 0 26.148438.761719 38.636719 2.261719zm0 0"/><path d="m340.339844 57.011719c-4.429688-1.292969-9.09375-.453125-12.789063 2.316406-3.695312 2.769531-5.816406 7.003906-5.816406 11.621094v25.148437c0 6.507813 4.382813 12.257813 10.65625 13.988282 13.707031 3.769531 26.664063 8.621093 38.519531 14.410156 2.019532.984375 4.1875 1.476562 6.347656 1.476562 2.660157 0 5.308594-.742187 7.660157-2.210937 4.28125-2.671875 6.835937-7.28125 6.835937-12.324219v-23.980469c0-5.378906-2.957031-10.292969-7.71875-12.832031-13.347656-7.113281-28.050781-13.039062-43.695312-17.613281zm36.449218 53.703125c-12.398437-6-25.878906-11.035156-40.085937-14.964844v-24.207031c14.371094 4.242187 27.855469 9.683593 40.085937 16.179687zm0 0"/><path d="m177.003906 54.367188c-15.074218 3.792968-29.394531 8.796874-42.558594 14.878906-4.285156 1.976562-7.339843 5.9375-8.167968 10.59375-.835938 4.679687.671875 9.476562 4.027344 12.835937l17.691406 17.6875c2.78125 2.78125 6.453125 4.265625 10.222656 4.265625 1.539062 0 3.09375-.246094 4.609375-.753906 12.890625-4.3125 26.726563-7.667969 41.128906-9.96875 5.390625-.859375 9.789063-4.625 11.472657-9.828125 1.695312-5.226563.335937-10.878906-3.542969-14.761719l-21.125-21.121094c-3.589844-3.59375-8.863281-5.058593-13.757813-3.828124zm-18.625 45.214843-17.035156-17.035156c12.066406-5.523437 25.1875-10.09375 39.015625-13.589844l20.316406 20.320313c-14.765625 2.40625-28.992187 5.871094-42.296875 10.304687zm0 0"/></svg>