<svg height="511pt" viewBox="-27 1 511 511.9989" width="511pt" xmlns="http://www.w3.org/2000/svg"><path d="m185.160156 364.960938 191.882813-140.820313c59.746093-43.84375 86.582031-119.78125 67.65625-191.429687-6.660157-25.214844-38.148438-33.710938-56.589844-15.269532l-275.234375 275.234375zm0 0" fill="#9ca9ba"/><path d="m213.382812 344.25-76.042968-76.042969-24.464844 24.46875 72.285156 72.285157zm0 0" fill="#8b97a5"/><path d="m26.421875 468.070312 30.21875 30.21875c8.296875 8.296876 21.746094 8.296876 30.039063 0l6.476562-6.472656c3.589844-3.59375 3.589844-9.417968 0-13.007812-6.03125-6.03125-6.03125-15.8125 0-21.84375l60.578125-60.578125c1.894531-1.894531 4.960937-1.894531 6.851563 0 3.59375 3.589843 9.417968 3.589843 13.011718 0l14.988282-14.992188c3.59375-3.59375 3.59375-9.417969 0-13.007812l-75.710938-75.714844-86.453125 86.449219c-24.5625 24.566406-24.5625 64.390625 0 88.949218zm0 0" fill="#e1b89a"/><path d="m56.640625 498.289062c8.296875 8.296876 21.746094 8.296876 30.039063 0l6.476562-6.472656c3.589844-3.59375 3.589844-9.417968 0-13.007812-6.03125-6.03125-6.03125-15.8125 0-21.84375l19.027344-19.03125c-19.539063-31.285156-29.40625-75.238282-26.378906-118.191406l-59.382813 59.382812c-24.5625 24.5625-24.5625 64.382812 0 88.945312zm0 0" fill="#d2996f"/><path d="m122.167969 378.597656c1.800781 10.433594 8.34375 20.171875 19.859375 29.496094l10.371094-10.371094c-9.316407-7.269531-14.65625-14.507812-15.882813-21.605468-2.203125-12.753907 8.226563-26 19.820313-39.980469l-10.339844-10.339844c-13.546875 16.308594-27.214844 33.203125-23.828125 52.800781zm0 0" fill="#d2996f"/><path d="m35.207031 407.953125c1.632813 23.796875-2.90625 44.433594-12.046875 56.570313 1.039063 1.210937 2.113282 2.402343 3.261719 3.546874l6.976563 6.976563c12.273437-14.960937 18.296874-39.46875 16.335937-68.089844-.898437-13.097656-3.90625-28.546875-9.558594-41.585937l-11.175781 11.175781c3.195312 9.035156 5.417969 19.878906 6.207031 31.40625zm0 0" fill="#e1b89a"/><path d="m106.910156 390.582031c0 10.65625-8.640625 19.292969-19.292968 19.292969-10.65625 0-19.292969-8.636719-19.292969-19.292969 0-10.652343 8.636719-19.292969 19.292969-19.292969 10.652343 0 19.292968 8.640626 19.292968 19.292969zm0 0" fill="#718299"/><path d="m97.460938 407.152344c-4.066407-11.292969-7.175782-23.355469-9.234376-35.832032-5.136718-.164062-10.328124 1.699219-14.25 5.621094-7.535156 7.535156-7.535156 19.75 0 27.28125 6.371094 6.371094 16.078126 7.335938 23.484376 2.929688zm0 0" fill="#646f7e"/><path d="m261.058594 309.261719 99.039062-72.683594v-191.128906l-99.039062 99.039062zm0 0" fill="#718299"/><path d="m291.363281 223.277344c-7.625-7.621094-21.5625-6.042969-31.132812 3.527344-9.570313 9.574218-11.148438 23.507812-3.527344 31.132812 7.621094 7.621094 21.558594 6.039062 31.128906-3.53125 9.570313-9.570312 11.152344-23.507812 3.53125-31.128906zm0 0" fill="#eda1ab"/><path d="m385.292969 129.347656c-7.621094-7.621094-21.558594-6.039062-31.128907 3.53125-9.570312 9.570313-11.148437 23.507813-3.527343 31.128906 7.621093 7.621094 21.558593 6.042969 31.128906-3.527343 9.570313-9.574219 11.152344-23.507813 3.527344-31.132813zm0 0" fill="#eda1ab"/><path d="m324.363281 169.0625c-8.632812-8.632812-21.886719-9.378906-29.605469-1.664062-7.714843 7.71875-6.972656 20.972656 1.664063 29.609374 8.632813 8.632813 21.890625 9.378907 29.605469 1.660157 7.714844-7.714844 6.972656-20.96875-1.664063-29.605469zm0 0" fill="#4e5660"/><path d="m199.5625 319.539062c-4.144531 0-7.5-3.359374-7.5-7.5v-16.515624c0-4.140626 3.355469-7.5 7.5-7.5 4.140625 0 7.5 3.359374 7.5 7.5v16.515624c0 4.140626-3.359375 7.5-7.5 7.5zm0 0" fill="#8b97a5"/><path d="m410.269531 78.101562c-4.144531 0-7.5-3.355468-7.5-7.5v-11.363281c0-4.144531 3.355469-7.5 7.5-7.5 4.140625 0 7.5 3.355469 7.5 7.5v11.363281c0 4.144532-3.359375 7.5-7.5 7.5zm0 0" fill="#8b97a5"/><path d="m451.949219 30.796875c-3.820313-14.46875-14.726563-25.433594-29.171875-29.332031-14.449219-3.898438-29.390625.09375-39.972656 10.671875l-338.007813 338.007812c-2.929687 2.929688-2.929687 7.675781 0 10.605469s7.679687 2.929688 10.605469 0l57.472656-57.46875 70.40625 70.410156c.664062.660156.664062 1.738282 0 2.398438l-14.988281 14.992187c-.410157.410157-.878907.496094-1.199219.496094s-.789062-.085937-1.203125-.5c-4.8125-4.808594-12.644531-4.808594-17.457031.003906l-60.582032 60.582031c-8.945312 8.945313-8.945312 23.503907 0 32.449219.660157.660157.660157 1.738281 0 2.398438l-6.476562 6.476562c-5.355469 5.355469-14.074219 5.355469-19.429688 0l-30.21875-30.21875c-21.253906-21.253906-21.824218-55.078125-1.296874-77.003906 2.832031-3.023437 2.675781-7.769531-.347657-10.601563-3.023437-2.832031-7.769531-2.675781-10.601562.347657-12.519531 13.375-19.257813 30.839843-18.972657 49.183593.285157 18.386719 7.605469 35.675782 20.609376 48.679688l30.21875 30.21875c5.605468 5.601562 12.960937 8.40625 20.324218 8.40625 7.359375 0 14.71875-2.804688 20.320313-8.40625l6.476562-6.476562c6.507813-6.507813 6.507813-17.101563 0-23.613282-3.097656-3.097656-3.097656-8.136718 0-11.234375l58.851563-58.851562c2.828125 2.054687 6.21875 3.160156 9.78125 3.160156 4.457031 0 8.652344-1.734375 11.808594-4.890625l14.988281-14.988281c5.578125-5.582031 6.363281-14.152344 2.378906-20.585938l185.214844-135.925781c10.53125-7.726562 20.269531-16.570312 28.945312-26.28125 2.761719-3.089844 2.492188-7.828125-.59375-10.589844-3.089843-2.761718-7.832031-2.492187-10.589843.597656-7.984376 8.933594-16.945313 17.066407-26.640626 24.179688l-186.691406 137.011719-62.429687-62.429688 269.929687-269.933593c6.742188-6.738282 16.257813-9.277344 25.457032-6.796876 9.199218 2.484376 16.148437 9.464844 18.582031 18.679688 11.742187 44.457031 5.035156 92.652344-18.402344 132.234375-2.109375 3.5625-.933594 8.164063 2.632813 10.273437 3.566406 2.113282 8.164062.933594 10.273437-2.628906 12.636719-21.339844 20.824219-44.605468 24.339844-69.152344 3.582031-25.003906 2.121093-50.089843-4.34375-74.554687zm-103.171875 109.980469c1.917968 0 3.839844-.730469 5.304687-2.195313 2.925781-2.929687 2.925781-7.679687 0-10.605469l-7.441406-7.441406c-2.929687-2.925781-7.675781-2.925781-10.605469 0-2.929687 2.929688-2.929687 7.679688 0 10.609375l7.4375 7.4375c1.464844 1.460938 3.382813 2.195313 5.304688 2.195313zm-59.316406 21.324218c-5.261719 5.261719-7.921876 12.429688-7.484376 20.179688.417969 7.4375 3.664063 14.550781 9.144532 20.03125 6.085937 6.085938 13.976562 9.171875 21.636718 9.171875 6.867188 0 13.550782-2.484375 18.578126-7.511719 10.628906-10.625 9.882812-28.667968-1.664063-40.210937s-29.582031-12.289063-40.210937-1.660157zm31.269531 31.269532c-4.78125 4.777344-13.304688 4.035156-19-1.664063-2.871094-2.871093-4.570313-6.515625-4.777344-10.265625-.195313-3.429687.914063-6.53125 3.113281-8.734375 2.039063-2.039062 4.847656-3.136719 7.972656-3.136719.253907 0 .507813.007813.761719.019532 3.75.210937 7.398438 1.910156 10.265625 4.777344 5.695313 5.699218 6.441406 14.222656 1.664063 19.003906zm-233.113281 224.003906c7.15625 0 13.882812-2.789062 18.945312-7.847656 5.058594-5.0625 7.84375-11.789063 7.84375-18.945313s-2.785156-13.882812-7.847656-18.945312c-5.058594-5.058594-11.785156-7.84375-18.941406-7.84375s-13.882813 2.785156-18.945313 7.84375c-5.058594 5.0625-7.847656 11.789062-7.847656 18.945312s2.789062 13.882813 7.847656 18.945313c5.0625 5.058594 11.789063 7.847656 18.945313 7.847656zm-8.335938-35.128906c2.226562-2.226563 5.1875-3.457032 8.335938-3.457032 3.148437 0 6.109374 1.230469 8.339843 3.457032 2.226563 2.226562 3.453125 5.1875 3.453125 8.335937 0 3.148438-1.230468 6.109375-3.453125 8.335938-2.230469 2.230469-5.191406 3.457031-8.339843 3.457031-3.148438 0-6.109376-1.226562-8.335938-3.457031-2.230469-2.226563-3.457031-5.1875-3.457031-8.335938 0-3.148437 1.226562-6.109375 3.457031-8.335937zm168.613281-173.570313c-2.929687 2.925781-2.929687 7.675781 0 10.605469l7.4375 7.4375c1.464844 1.464844 3.386719 2.199219 5.304688 2.199219s3.839843-.734375 5.304687-2.199219c2.929688-2.929688 2.929688-7.675781 0-10.605469l-7.4375-7.4375c-2.929687-2.929687-7.679687-2.929687-10.609375 0zm0 0"/></svg>