<?xml version="1.0" encoding="iso-8859-1"?>
<!-- Generator: Adobe Illustrator 21.0.0, SVG Export Plug-In . SVG Version: 6.00 Build 0)  -->
<svg xmlns="http://www.w3.org/2000/svg" xmlns:xlink="http://www.w3.org/1999/xlink" version="1.1" id="Capa_1" x="0px" y="0px" viewBox="0 0 512.002 512.002" style="enable-background:new 0 0 512.002 512.002;" xml:space="preserve" width="512" height="512">
<g>
	<path d="M391.002,180.002h-184.02L380.271,79.954c7.17-4.139,9.632-13.317,5.49-20.49l-30-51.961   c-4.143-7.175-13.316-9.632-20.49-5.49l-90.933,52.5l-22.5-38.971c-4.143-7.175-13.316-9.632-20.49-5.49l-103.923,60   c-7.175,4.142-9.633,13.316-5.49,20.49l22.5,38.971l-90.933,52.5c-7.17,4.139-9.632,13.317-5.49,20.49l30,51.961   c4.142,7.174,13.315,9.632,20.49,5.49l13.145-7.589l24.429,246.119c0.762,7.673,7.216,13.519,14.927,13.519h240   c7.71,0,14.164-5.845,14.927-13.517l30-302C406.806,187.66,399.863,180.002,391.002,180.002z M125.415,88.531l77.942-45l15,25.981   l-77.942,45L125.415,88.531z M66.492,226.474l-15-25.981l285.789-165l15,25.981L66.492,226.474z M155.021,210.002h219.417   l-20.961,211h-30.211l16.363-164.515c0.819-8.244-5.198-15.591-13.442-16.411c-8.243-0.82-15.591,5.198-16.411,13.441   l-16.659,167.485h-37.116v-166c0-8.284-6.716-15-15-15s-15,6.716-15,15v166h-37.116l-16.659-167.485   c-0.82-8.243-8.152-14.265-16.411-13.441c-8.244,0.82-14.262,8.167-13.442,16.411l16.363,164.515h-30.205l-18.372-185.1   L155.021,210.002z M134.587,482.002l-3.077-31c9.641,0,209.388,0,218.988,0l-3.08,31H134.587z"/>
	<path d="M481.002,90.002h-30c-8.284,0-15,6.716-15,15s6.716,15,15,15h30c8.284,0,15-6.716,15-15S489.286,90.002,481.002,90.002z"/>
	<path d="M431.608,154.396c-5.857-5.858-15.355-5.858-21.213,0c-5.858,5.858-5.858,15.355,0,21.213l30,30   c5.857,5.858,15.356,5.858,21.213,0c5.858-5.858,5.858-15.355,0-21.213L431.608,154.396z"/>
	<path d="M431.608,55.609l30-30c5.858-5.858,5.858-15.355,0-21.213c-5.857-5.858-15.355-5.858-21.213,0l-30,30   c-5.858,5.858-5.858,15.355,0,21.213C416.252,61.467,425.751,61.467,431.608,55.609z"/>
</g>















</svg>
