<?xml version="1.0" encoding="iso-8859-1"?>
<!-- Generator: Adobe Illustrator 21.0.0, SVG Export Plug-In . SVG Version: 6.00 Build 0)  -->
<svg xmlns="http://www.w3.org/2000/svg" xmlns:xlink="http://www.w3.org/1999/xlink" version="1.1" id="Capa_1" x="0px" y="0px" viewBox="0 0 512.247 512.247" style="enable-background:new 0 0 512.247 512.247;" xml:space="preserve" width="512" height="512">
<path d="M432.061,215.747c4.142,0,7.5-3.357,7.5-7.5v-90.109C439.561,52.996,386.564,0,321.423,0h-89.455  c-65.141,0-118.138,52.996-118.138,118.138v35.773c-24.213,10.781-41.145,35.055-41.145,63.225v42.101  c0,54.868,36.04,101.47,85.688,117.396v97.856c0,20.82,16.939,37.759,37.759,37.759h13.991c9.674,0,9.674-15,0-15h-13.991  c-20.347,0-22.759-18.918-22.759-34.5h45.25c9.674,0,9.674-15,0-15h-45.25v-65.5c62.823,0,125.678,0,188.5,0v24h-81.25  c-18.472,0-33.5,15.028-33.5,33.5s15.028,33.5,33.5,33.5h81.246c-0.086,13.248-10.887,24-24.155,24h-78.591c-9.674,0-9.674,15,0,15  h78.591c21.592,0,39.159-17.566,39.159-39.159v-97.957c36.727-14.945,62.688-51.022,62.688-93.053v-28.83c0-9.675-15-9.675-15,0  v28.83c0,45.022-35.021,81.995-79.249,85.17H188.715C132.38,363.514,87.686,316.5,87.686,259.236v-42.101  c0-29.878,24.307-54.185,54.185-54.185h42.013c19.549,0,35.454,15.904,35.454,35.454s-15.905,35.454-35.454,35.454h-37.748  c-9.674,0-9.674,15,0,15h37.748c14.719,0,27.983-6.338,37.215-16.425c9.741,2.546,19.8,3.841,29.962,3.841h77.198  c22.336,0,41.445-14.04,48.994-33.754l26.159-15.301c8.352-4.884,0.778-17.83-7.573-12.947l-15.129,8.849v-28.539  c0-9.675-15-9.675-15,0v29.241c0,20.65-16.8,37.451-37.451,37.451H251.06c-7.153,0-14.242-0.744-21.174-2.189  c2.851-6.316,4.452-13.313,4.452-20.681c0-27.82-22.634-50.454-50.454-50.454h-42.013c-4.458,0-8.814,0.44-13.04,1.25v-31.063  C128.831,61.268,175.099,15,231.969,15h89.455c56.87,0,103.138,46.268,103.138,103.138v90.109  C424.561,212.39,427.919,215.747,432.061,215.747z M361.124,458.247h-80.5c-10.201,0-18.5-8.299-18.5-18.5s8.299-18.5,18.5-18.5  h80.5V458.247z"/>















</svg>
