<svg height="512pt" viewBox="-61 0 512 512" width="512pt" xmlns="http://www.w3.org/2000/svg"><path d="m330 512v-98.925781c38.371094-40.605469 60-94.503907 60-150.925781 0-24.03125 0-158.261719 0-187.148438 0-41.355469-33.644531-75-75-75h-180c-41.355469 0-75 33.644531-75 75v16.578125c-33.253906 7.066406-60 38.109375-60 75.421875v95.148438c0 58.847656 50.667969 111.652343 90 151.0625v98.789062zm-210-30v-60h60c16.542969 0 30 13.457031 30 30s-13.457031 30-30 30zm60-120h60v30h-60zm0-30c0-16.542969 13.457031-30 30-30s30 13.457031 30 30zm51.929688 150c5.121093-8.832031 8.070312-19.074219 8.070312-30s-2.949219-21.167969-8.070312-30h68.070312v60zm-141.929688-407c0-24.8125 20.1875-45 45-45h180c24.8125 0 45 20.1875 45 45v61c0 41.90625-33.644531 76-75 76h-120c-41.355469 0-75-34.09375-75-76zm-60 92c0-20.015625 12.71875-37.582031 30-44.199219v13.199219c0 58.449219 47.101562 106 105 106h120c29.355469 0 55.925781-12.226562 75-31.898438v52.046876c0 48.667968-18.1875 94.535156-51.347656 129.851562h-38.652344v-60c0-33.085938-26.914062-60-60-60s-60 26.914062-60 60v60h-38.785156c-35.609375-35.6875-81.214844-83.15625-81.214844-129.851562zm0 0"/></svg>