<svg height="511pt" viewBox="-34 0 511 511.99981" width="511pt" xmlns="http://www.w3.org/2000/svg"><path d="m273.570312 93.859375h-102.402343c-4.710938 0-8.53125-3.8125-8.53125-8.535156v-8.53125c0-32.929688 26.792969-59.734375 59.734375-59.734375 32.9375 0 59.734375 26.804687 59.734375 59.734375v8.53125c0 4.722656-3.824219 8.535156-8.535157 8.535156zm-93.867187-17.066406h85.335937c0-23.527344-19.140624-42.667969-42.667968-42.667969s-42.667969 19.140625-42.667969 42.667969zm0 0"/><path d="m222.371094 247.460938c-2.183594 0-4.371094-.835938-6.035156-2.5l-42.667969-42.667969c-3.335938-3.335938-3.335938-8.726563 0-12.066407l42.667969-42.664062c3.328124-3.339844 8.738281-3.339844 12.066406 0l42.667968 42.664062c3.335938 3.339844 3.335938 8.730469 0 12.066407l-42.667968 42.667969c-1.664063 1.664062-3.847656 2.5-6.03125 2.5zm-30.601563-51.199219 30.601563 30.601562 30.601562-30.601562-30.601562-30.601563zm0 0"/><path d="m158.882812 93.859375h-98.648437c-4.710937 0-8.535156-3.8125-8.535156-8.535156v-33.542969c0-14.0625 8.40625-42.796875 40.21875-50.808594 9.386719-2.355468 19.542969-.417968 29.355469 5.648438 20.730468 12.816406 38.332031 42.265625 45.9375 76.871094.554687 2.523437-.0625 5.160156-1.683594 7.183593-1.613282 2.007813-4.058594 3.183594-6.644532 3.183594zm-90.113281-17.066406h79.101563c-7.457032-25.070313-21.101563-46.710938-35.566406-55.648438-5.871094-3.625-11.324219-4.835937-16.210938-3.617187-27.019531 6.800781-27.324219 33.136718-27.324219 34.253906zm0 0"/><path d="m107.484375 93.859375h-47.25c-4.710937 0-8.535156-3.8125-8.535156-8.535156v-33.542969c.011719-.972656.171875-9.320312 4.046875-19.261719 1.585937-4.050781 5.988281-6.296875 10.179687-5.128906 18.9375 5.140625 37.417969 25.578125 49.433594 54.675781 1.085937 2.636719.792969 5.632813-.792969 8.003906-1.578125 2.363282-4.242187 3.789063-7.082031 3.789063zm-38.714844-17.066406h25.257813c-7.195313-13.433594-16.027344-23.902344-24.765625-29.390625-.460938 2.699218-.492188 4.445312-.492188 4.480468zm0 0"/><path d="m384.507812 93.859375h-98.648437c-2.585937 0-5.035156-1.175781-6.648437-3.183594-1.621094-2.011719-2.234376-4.660156-1.679688-7.183593 7.601562-34.605469 25.207031-64.054688 45.933594-76.871094 9.816406-6.066406 19.96875-8.003906 29.355468-5.648438 31.8125 8.019532 40.21875 36.746094 40.21875 50.808594v33.542969c0 4.722656-3.824218 8.535156-8.53125 8.535156zm-87.640624-17.066406h79.105468v-25.011719c-.007812-1.074219-.613281-27.539062-27.324218-34.261719-4.882813-1.230469-10.332032-.007812-16.214844 3.617188-14.460938 8.945312-28.109375 30.585937-35.566406 55.65625zm0 0"/><path d="m384.507812 93.859375h-47.25c-2.851562 0-5.515624-1.425781-7.09375-3.789063-1.585937-2.363281-1.875-5.367187-.792968-8.003906 12.023437-29.097656 30.5-49.546875 49.433594-54.675781 4.207031-1.167969 8.601562 1.078125 10.183593 5.140625 3.878907 9.929688 4.042969 18.277344 4.050781 19.199219v33.59375c0 4.722656-3.824218 8.535156-8.53125 8.535156zm-33.792968-17.066406h25.257812v-25.011719s-.042968-1.714844-.496094-4.386719c-8.738281 5.496094-17.570312 15.964844-24.761718 29.398438zm0 0"/><path d="m60.234375 477.867188h-31.105469c-15.785156 0-28.628906-12.84375-28.628906-28.632813v-89.683594c0-19.457031 15.828125-35.296875 35.285156-35.296875h24.449219c4.710937 0 8.535156 3.816406 8.535156 8.535156v136.535157c0 4.726562-3.824219 8.542969-8.535156 8.542969zm-24.449219-136.535157c-10.042968 0-18.21875 8.171875-18.21875 18.226563v89.6875c0 6.371094 5.1875 11.554687 11.5625 11.554687h22.570313v-119.46875zm0 0"/><path d="m415.609375 477.867188h-31.101563c-4.710937 0-8.535156-3.816407-8.535156-8.535157v-136.535156c0-4.71875 3.824219-8.535156 8.535156-8.535156h24.445313c19.457031 0 35.289063 15.832031 35.289063 35.296875v89.6875c0 15.777344-12.84375 28.621094-28.632813 28.621094zm-22.570313-17.066407h22.570313c6.375 0 11.5625-5.183593 11.5625-11.554687v-89.6875c0-10.054688-8.171875-18.226563-18.21875-18.226563h-15.914063zm0 0"/><path d="m305.28125 469.332031h-165.820312c-20.15625 0-36.558594-16.402343-36.558594-36.558593v-31.707032c0-4.722656 3.820312-8.535156 8.53125-8.535156h221.871094c4.710937 0 8.535156 3.8125 8.535156 8.535156v31.707032c0 20.15625-16.402344 36.558593-36.558594 36.558593zm-185.3125-59.734375v23.175782c0 10.753906 8.746094 19.492187 19.492188 19.492187h165.820312c10.753906 0 19.492188-8.738281 19.492188-19.492187v-23.175782zm0 0"/><path d="m347.480469 409.597656h-250.21875c-6.296875 0-11.425781-5.128906-11.425781-11.425781v-46.804687c0-10.242188 8.328124-18.570313 18.566406-18.570313h235.933594c10.242187 0 18.570312 8.328125 18.570312 18.570313v46.804687c0 6.296875-5.128906 11.425781-11.425781 11.425781zm-244.578125-17.066406h238.9375v-41.164062c0-.828126-.675782-1.503907-1.503906-1.503907h-235.933594c-.828125 0-1.5.675781-1.5 1.503907zm0 0"/><path d="m350.371094 512h-256.003906c-23.527344 0-42.667969-19.140625-42.667969-42.667969v-207.996093c0-3.90625 2.65625-7.3125 6.445312-8.277344 3.769531-.945313 7.738281.769531 9.597657 4.21875 10.96875 20.257812 32.078124 32.851562 55.09375 32.851562h199.085937c23.015625 0 44.117187-12.59375 55.09375-32.851562 1.859375-3.449219 5.816406-5.164063 9.597656-4.21875 3.773438.957031 6.425781 4.371094 6.425781 8.277344v207.996093c0 23.527344-19.140624 42.667969-42.667968 42.667969zm-281.601563-225.949219v183.28125c0 14.113281 11.484375 25.601563 25.597657 25.601563h256.003906c14.117187 0 25.601562-11.488282 25.601562-25.601563v-183.28125c-14.488281 13.390625-33.691406 21.144531-54.058594 21.144531h-199.085937c-20.371094 0-39.570313-7.746093-54.058594-21.144531zm0 0"/><path d="m321.914062 307.195312h-199.085937c-43.921875 0-79.660156-35.738281-79.660156-79.660156v-142.210937c0-4.71875 3.824219-8.53125 8.53125-8.53125h341.339843c4.710938 0 8.535157 3.8125 8.535157 8.53125v142.210937c0 43.921875-35.738281 79.660156-79.660157 79.660156zm-261.679687-213.335937v133.675781c0 34.519532 28.082031 62.59375 62.59375 62.59375h199.085937c34.507813 0 62.59375-28.074218 62.59375-62.59375v-133.675781zm0 0"/><path d="m60.234375 375.464844h-51.199219c-4.710937 0-8.535156-3.816406-8.535156-8.535156s3.824219-8.53125 8.535156-8.53125h51.199219c4.710937 0 8.535156 3.8125 8.535156 8.53125s-3.824219 8.535156-8.535156 8.535156zm0 0"/><path d="m60.234375 409.597656h-51.199219c-4.710937 0-8.535156-3.8125-8.535156-8.53125 0-4.722656 3.824219-8.535156 8.535156-8.535156h51.199219c4.710937 0 8.535156 3.8125 8.535156 8.535156 0 4.71875-3.824219 8.53125-8.535156 8.53125zm0 0"/><path d="m435.707031 375.464844h-51.199219c-4.710937 0-8.535156-3.816406-8.535156-8.535156s3.824219-8.53125 8.535156-8.53125h51.199219c4.710938 0 8.535157 3.8125 8.535157 8.53125s-3.824219 8.535156-8.535157 8.535156zm0 0"/><path d="m435.707031 409.597656h-51.199219c-4.710937 0-8.535156-3.8125-8.535156-8.53125 0-4.722656 3.824219-8.535156 8.535156-8.535156h51.199219c4.710938 0 8.535157 3.8125 8.535157 8.535156 0 4.71875-3.824219 8.53125-8.535157 8.53125zm0 0"/><path d="m299.171875 435.199219c-4.710937 0-8.535156-3.816407-8.535156-8.535157v-25.597656c0-4.722656 3.824219-8.535156 8.535156-8.535156s8.53125 3.8125 8.53125 8.535156v25.597656c0 4.71875-3.820313 8.535157-8.53125 8.535157zm0 0"/></svg>